<?xml version="1.0" encoding="UTF-8"?>
<!DOCTYPE svg PUBLIC "-//W3C//DTD SVG 1.1//EN" "http://www.w3.org/Graphics/SVG/1.1/DTD/svg11.dtd">
<svg xmlns="http://www.w3.org/2000/svg" version="1.1" width="177px" height="178px" style="shape-rendering:geometricPrecision; text-rendering:geometricPrecision; image-rendering:optimizeQuality; fill-rule:evenodd; clip-rule:evenodd" xmlns:xlink="http://www.w3.org/1999/xlink">
<g><path style="opacity:0.933" fill="#4bbceb" d="M 85.5,-0.5 C 86.5,-0.5 87.5,-0.5 88.5,-0.5C 93.1035,8.37356 97.4368,17.3736 101.5,26.5C 97.563,34.0406 93.8963,41.7072 90.5,49.5C 87.1304,53.9124 85.1304,58.9124 84.5,64.5C 81.9922,68.1822 79.9922,72.1822 78.5,76.5C 73.8216,82.5162 70.155,89.1829 67.5,96.5C 65.3754,99.0878 64.0421,102.088 63.5,105.5C 61.4152,107.684 60.4152,110.351 60.5,113.5C 50.9522,132.928 41.1188,152.262 31,171.5C 28.3123,173.364 25.8123,175.364 23.5,177.5C 15.5,177.5 7.5,177.5 -0.5,177.5C -0.5,176.5 -0.5,175.5 -0.5,174.5C 28.9841,116.532 57.6508,58.1989 85.5,-0.5 Z"/></g>
<g><path style="opacity:0.928" fill="#477fc1" d="M 101.5,26.5 C 106.072,34.6416 110.405,42.9749 114.5,51.5C 106.708,51.2977 98.8745,51.631 91,52.5C 90.5172,51.552 90.3505,50.552 90.5,49.5C 93.8963,41.7072 97.563,34.0406 101.5,26.5 Z"/></g>
<g><path style="opacity:0.966" fill="#4786c6" d="M 90.5,49.5 C 90.3505,50.552 90.5172,51.552 91,52.5C 98.8745,51.631 106.708,51.2977 114.5,51.5C 116.833,56.1667 119.167,60.8333 121.5,65.5C 109.419,65.0684 97.4193,65.0684 85.5,65.5C 84.8333,65.5 84.5,65.1667 84.5,64.5C 85.1304,58.9124 87.1304,53.9124 90.5,49.5 Z"/></g>
<g><path style="opacity:0.942" fill="#488cca" d="M 121.5,65.5 C 123.771,69.7091 125.771,74.0424 127.5,78.5C 115.655,78.1717 103.988,78.5051 92.5,79.5C 89.6589,75.1511 87.3255,70.4844 85.5,65.5C 97.4193,65.0684 109.419,65.0684 121.5,65.5 Z"/></g>
<g><path style="opacity:0.942" fill="#4893ce" d="M 127.5,78.5 C 130.072,82.6392 132.405,86.9726 134.5,91.5C 122.5,91.5 110.5,91.5 98.5,91.5C 95.9922,87.8178 93.9922,83.8178 92.5,79.5C 103.988,78.5051 115.655,78.1717 127.5,78.5 Z"/></g>
<g><path style="opacity:0.942" fill="#4998d2" d="M 98.5,91.5 C 110.5,91.5 122.5,91.5 134.5,91.5C 136.771,95.7091 138.771,100.042 140.5,104.5C 128.409,104.271 116.409,104.271 104.5,104.5C 102.229,100.291 100.229,95.9576 98.5,91.5 Z"/></g>
<g><path style="opacity:0.943" fill="#4780c2" d="M 78.5,76.5 C 81.5,83.1667 84.5,89.8333 87.5,96.5C 84.572,97.8197 81.2386,98.4864 77.5,98.5C 73.7614,98.4864 70.428,97.8197 67.5,96.5C 70.155,89.1829 73.8216,82.5162 78.5,76.5 Z"/></g>
<g><path style="opacity:0.949" fill="#4787c6" d="M 67.5,96.5 C 70.428,97.8197 73.7614,98.4864 77.5,98.5C 81.2386,98.4864 84.572,97.8197 87.5,96.5C 89.4046,99.3037 91.0713,102.304 92.5,105.5C 82.7351,106.817 73.0684,106.817 63.5,105.5C 64.0421,102.088 65.3754,99.0878 67.5,96.5 Z"/></g>
<g><path style="opacity:0.953" fill="#488cca" d="M 63.5,105.5 C 73.0684,106.817 82.7351,106.817 92.5,105.5C 94.1054,108.378 95.4388,111.378 96.5,114.5C 84.4197,114.188 72.4197,114.521 60.5,115.5C 60.5,114.833 60.5,114.167 60.5,113.5C 60.4152,110.351 61.4152,107.684 63.5,105.5 Z"/></g>
<g><path style="opacity:0.941" fill="#499ed7" d="M 140.5,104.5 C 143.405,109.307 146.072,114.307 148.5,119.5C 136.42,119.188 124.42,119.521 112.5,120.5C 109.833,115.167 107.167,109.833 104.5,104.5C 116.409,104.271 128.409,104.271 140.5,104.5 Z"/></g>
<g><path style="opacity:0.932" fill="#4893ce" d="M 96.5,114.5 C 98.341,116.849 99.6743,119.515 100.5,122.5C 88.8333,123.167 77.1667,123.833 65.5,124.5C 64.0287,121.448 62.362,118.448 60.5,115.5C 72.4197,114.521 84.4197,114.188 96.5,114.5 Z"/></g>
<g><path style="opacity:0.943" fill="#4999d2" d="M 100.5,122.5 C 102.674,125.515 104.341,128.849 105.5,132.5C 93.6547,132.172 81.988,132.505 70.5,133.5C 68.0743,130.987 66.4076,127.987 65.5,124.5C 77.1667,123.833 88.8333,123.167 100.5,122.5 Z"/></g>
<g><path style="opacity:0.937" fill="#4aa5db" d="M 148.5,119.5 C 150.771,123.709 152.771,128.042 154.5,132.5C 142.655,132.172 130.988,132.505 119.5,133.5C 116.928,129.361 114.595,125.027 112.5,120.5C 124.42,119.521 136.42,119.188 148.5,119.5 Z"/></g>
<g><path style="opacity:0.938" fill="#499fd7" d="M 105.5,132.5 C 107.341,134.849 108.674,137.515 109.5,140.5C 97.4521,139.855 85.7854,140.522 74.5,142.5C 72.9073,139.645 71.5739,136.645 70.5,133.5C 81.988,132.505 93.6547,132.172 105.5,132.5 Z"/></g>
<g><path style="opacity:0.947" fill="#4aabdf" d="M 154.5,132.5 C 157.072,136.639 159.405,140.973 161.5,145.5C 149.532,145.26 137.532,145.593 125.5,146.5C 123.229,142.291 121.229,137.958 119.5,133.5C 130.988,132.505 142.655,132.172 154.5,132.5 Z"/></g>
<g><path style="opacity:0.877" fill="#4cbdec" d="M 66.5,177.5 C 62.1667,177.5 57.8333,177.5 53.5,177.5C 42.7982,167.672 41.7982,156.839 50.5,145C 58.6912,139.552 65.8578,140.718 72,148.5C 77.322,159.542 75.4886,169.209 66.5,177.5 Z"/></g>
<g><path style="opacity:0.939" fill="#4aa5db" d="M 109.5,140.5 C 111.341,142.849 112.674,145.515 113.5,148.5C 102.012,149.495 90.3453,149.828 78.5,149.5C 76.9291,147.365 75.5957,145.032 74.5,142.5C 85.7854,140.522 97.4521,139.855 109.5,140.5 Z"/></g>
<g><path style="opacity:0.944" fill="#4bb2e4" d="M 161.5,145.5 C 164.104,150.375 166.438,155.375 168.5,160.5C 157.012,161.495 145.345,161.828 133.5,161.5C 130.595,156.693 127.928,151.693 125.5,146.5C 137.532,145.593 149.532,145.26 161.5,145.5 Z"/></g>
<g><path style="opacity:0.942" fill="#4aabdf" d="M 113.5,148.5 C 115.405,151.304 117.071,154.304 118.5,157.5C 106.5,157.5 94.5,157.5 82.5,157.5C 80.659,155.151 79.3257,152.485 78.5,149.5C 90.3453,149.828 102.012,149.495 113.5,148.5 Z"/></g>
<g><path style="opacity:0.941" fill="#4bb2e4" d="M 82.5,157.5 C 94.5,157.5 106.5,157.5 118.5,157.5C 120.105,160.378 121.439,163.378 122.5,166.5C 111.012,167.495 99.3453,167.828 87.5,167.5C 85.3256,164.485 83.6589,161.151 82.5,157.5 Z"/></g>
<g><path style="opacity:0.929" fill="#4bb9e9" d="M 168.5,160.5 C 171.167,165.167 173.833,169.833 176.5,174.5C 176.5,175.5 176.5,176.5 176.5,177.5C 167.167,177.5 157.833,177.5 148.5,177.5C 141.474,174.138 136.474,168.805 133.5,161.5C 145.345,161.828 157.012,161.495 168.5,160.5 Z"/></g>
<g><path style="opacity:0.911" fill="#4bb9e9" d="M 122.5,166.5 C 124.738,169.972 126.738,173.638 128.5,177.5C 118.5,177.5 108.5,177.5 98.5,177.5C 94.2352,174.906 90.5686,171.572 87.5,167.5C 99.3453,167.828 111.012,167.495 122.5,166.5 Z"/></g>
</svg>
